<svg width="10" height="18" viewBox="0 0 10 18" fill="none" xmlns="http://www.w3.org/2000/svg">
<g clip-path="url(#clip0_339:91)">
<path d="M9.39457 0.0118784C9.44061 0.0112298 9.48631 0.0199214 9.52905 0.0374517C9.57179 0.0549821 9.61071 0.0810043 9.64358 0.114017C9.93583 0.416862 10.0146 0.796847 9.99791 1.2354C9.9728 1.90966 9.99791 2.58606 9.99024 3.26175C9.98326 3.98458 9.67497 4.28814 8.96492 4.296C8.45574 4.30171 7.9468 4.3098 7.4381 4.32028C7.15422 4.32599 7.0196 4.47742 7.02797 4.77098C7.03634 5.06454 7.02797 5.3731 7.02797 5.69523C7.02788 5.7434 7.03707 5.79113 7.05501 5.83567C7.07295 5.8802 7.09929 5.92068 7.13252 5.95478C7.16576 5.98888 7.20524 6.01593 7.24869 6.03439C7.29215 6.05285 7.33874 6.06235 7.38579 6.06235H8.49062C8.6643 6.06235 8.83937 6.05593 9.01095 6.06235C9.54175 6.09021 9.87166 6.42377 9.87864 6.9716C9.8891 7.87228 9.88701 8.77296 9.87864 9.67364C9.87306 10.2493 9.52989 10.595 8.95934 10.6022C8.4404 10.6093 7.92076 10.6022 7.3816 10.6022C7.33449 10.602 7.28782 10.6113 7.24424 10.6297C7.20067 10.648 7.16106 10.6749 7.12768 10.709C7.09431 10.743 7.06783 10.7835 7.04976 10.828C7.03169 10.8726 7.02239 10.9204 7.02239 10.9686V11.0193C7.02239 12.974 7.02239 14.9294 7.02239 16.8855C7.02239 17.6662 6.70852 17.9905 5.95243 17.9926C5.15496 17.9974 4.35656 17.9997 3.55723 17.9997C2.81161 17.9997 2.49634 17.6812 2.49564 16.9241C2.49564 14.9684 2.49564 13.013 2.49564 11.0579V10.9757C2.49546 10.8785 2.4576 10.7853 2.39039 10.7166C2.32317 10.6479 2.23209 10.6093 2.13713 10.6093C1.74653 10.6093 1.37407 10.6093 1.0023 10.6093C0.327126 10.6036 0.00557997 10.2758 0 9.58293C0 8.75391 0 7.92442 0 7.09446C0 6.3802 0.318058 6.06592 1.02741 6.06307C1.38941 6.06307 1.75141 6.06307 2.13573 6.06307C2.23039 6.06307 2.32119 6.02466 2.38825 5.95625C2.45532 5.88785 2.49318 5.79501 2.49355 5.69808C2.49355 5.40309 2.49355 5.11953 2.49355 4.83526C2.48309 3.97172 2.60515 3.13604 2.9818 2.35179C3.53003 1.20897 4.4291 0.471146 5.61833 0.128302C5.61833 0.128302 5.82758 0.0568766 5.93081 0.0325919C6.17563 -0.0238345 9.39457 0.0118784 9.39457 0.0118784ZM1.05671 7.49158V9.17866C1.05671 9.27584 1.0944 9.36904 1.16151 9.43775C1.22861 9.50647 1.31962 9.54507 1.41452 9.54507H2.61212C3.38983 9.54507 3.52863 9.68792 3.52863 10.4686C3.52863 12.4723 3.52863 14.4756 3.52863 16.4784V16.5427C3.52863 16.6397 3.56623 16.7328 3.63319 16.8015C3.70014 16.8702 3.79097 16.9089 3.88575 16.9091H5.63437C5.72927 16.9091 5.82028 16.8705 5.88739 16.8017C5.95449 16.733 5.99219 16.6398 5.99219 16.5427V16.4912C5.99219 14.7965 5.99219 13.1014 5.99219 11.4057C5.99219 9.34937 5.83525 9.54865 7.79312 9.54507H8.46621C8.5611 9.54507 8.65212 9.50647 8.71922 9.43775C8.78632 9.36904 8.82402 9.27584 8.82402 9.17866V7.49158C8.82402 7.3944 8.78632 7.3012 8.71922 7.23249C8.65212 7.16377 8.5611 7.12517 8.46621 7.12517H7.71989C7.36068 7.12517 7.00216 7.13088 6.64295 7.12517C6.2126 7.1166 6.00335 6.91089 5.99428 6.46948C5.98521 6.00736 5.99428 5.54095 5.99428 5.08239C5.99916 3.7253 6.43301 3.27675 7.76592 3.25389C8.04492 3.24889 8.32392 3.25389 8.60292 3.25389C8.64877 3.25333 8.69407 3.24352 8.73622 3.22501C8.77837 3.2065 8.81654 3.17965 8.84855 3.14602C8.88055 3.11238 8.90577 3.07261 8.92274 3.02898C8.93972 2.98535 8.94812 2.93872 8.94748 2.89176V1.4004C8.94733 1.30493 8.9108 1.21329 8.84566 1.14499C8.78052 1.07669 8.69193 1.03711 8.59873 1.0347C7.91449 1.02184 7.2414 0.983983 6.57599 1.05112C4.69973 1.24112 3.62558 2.45107 3.54816 4.38671C3.52654 4.93883 3.53491 5.49238 3.53282 6.04521C3.53134 6.33222 3.41902 6.60698 3.22037 6.80946C3.02173 7.01194 2.7529 7.1257 2.47262 7.12588H1.41452C1.36757 7.12579 1.32105 7.13518 1.27764 7.15352C1.23424 7.17185 1.19479 7.19877 1.16155 7.23274C1.12831 7.26671 1.10195 7.30705 1.08396 7.35147C1.06597 7.39589 1.05671 7.4435 1.05671 7.49158Z" fill="#01EAEC"/>
</g>
<defs>
<clipPath id="clip0_339:91">
<rect width="10" height="18" fill="white"/>
</clipPath>
</defs>
</svg>
