<svg width="16" height="16" viewBox="0 0 16 16" fill="none" xmlns="http://www.w3.org/2000/svg">
<g clip-path="url(#clip0)">
<path d="M0 9.42292V6.51383C0.0132806 6.34688 0.0309881 6.18055 0.0392095 6.0136C0.0695652 5.37233 0.0771542 4.7298 0.129644 4.09044C0.289012 2.1464 1.50324 0.685534 3.34609 0.21249C3.67241 0.126482 4.00885 0.0822134 4.34213 0.0259289C4.35718 0.0234094 4.37241 0.0221402 4.38767 0.0221344C6.78957 0.0126482 9.16996 0.00948617 11.5731 0C11.8261 0 12.0563 0.0777866 12.313 0.126482C14.1179 0.467984 15.3043 1.49881 15.7869 3.28854C15.8874 3.6604 15.9304 4.04743 16 4.42688V11.4466C15.9785 11.5693 15.9475 11.6914 15.9368 11.8153C15.7698 13.7726 14.5632 15.2449 12.7115 15.723C12.3744 15.8103 12.0259 15.8571 11.6813 15.9172C11.6075 15.93 11.5329 15.9366 11.458 15.9368H4.60775C4.5268 15.9368 4.10182 15.8735 4.11067 15.8773C1.82324 15.6724 0.316206 14.099 0.126482 11.8153C0.0632411 11.0198 0.0404743 10.2204 0 9.42292ZM11.9165 14.4076C12.9499 14.3266 13.7726 13.8112 14.1932 12.8373C14.3952 12.3627 14.5073 11.8547 14.524 11.3391C14.5745 9.49629 14.5745 7.65217 14.5752 5.8087C14.5753 5.24003 14.5428 4.67182 14.4778 4.10688C14.3159 2.70482 13.4957 1.81628 12.1031 1.57723C11.4999 1.48257 10.8897 1.44025 10.2792 1.45075C8.28838 1.45708 6.29502 1.43937 4.30862 1.53233C2.71494 1.60759 1.65945 2.62324 1.5981 4.20617C1.50514 6.61439 1.47162 9.03146 1.56458 11.4391C1.64427 13.464 2.74277 14.419 4.77913 14.4753C5.86308 14.5062 10.6245 14.5094 11.9165 14.4076Z" fill="#01EAEC"/>
<path d="M8.03599 12.0791C7.22233 12.0799 6.42671 11.8393 5.7499 11.3877C5.07309 10.9361 4.54553 10.2937 4.23404 9.54206C3.92256 8.79039 3.84115 7.96318 4.00013 7.1652C4.15912 6.36722 4.55134 5.63438 5.12713 5.05948C5.70292 4.48458 6.43637 4.09348 7.23459 3.93573C8.03281 3.77798 8.85989 3.86066 9.61108 4.1733C10.3623 4.48595 11.0038 5.0145 11.4544 5.692C11.905 6.36951 12.1444 7.16549 12.1422 7.97915C12.1379 9.06628 11.7037 10.1075 10.9344 10.8757C10.1651 11.6438 9.12312 12.0764 8.03599 12.0791ZM10.6921 7.95765C10.6897 7.43162 10.5315 6.91809 10.2374 6.48194C9.94336 6.04578 9.52661 5.70657 9.03985 5.50714C8.55308 5.30771 8.01813 5.25702 7.50257 5.36147C6.987 5.46591 6.51396 5.72081 6.14319 6.09396C5.77242 6.46712 5.52056 6.94178 5.41942 7.458C5.31828 7.97423 5.3724 8.50884 5.57494 8.99432C5.77748 9.4798 6.11936 9.89436 6.55739 10.1856C6.99542 10.4769 7.50995 10.6318 8.03599 10.6308C8.38618 10.6308 8.73291 10.5614 9.05621 10.4269C9.37951 10.2923 9.673 10.0951 9.9198 9.84664C10.1666 9.59819 10.3618 9.30339 10.4943 8.9792C10.6267 8.65501 10.6937 8.30784 10.6915 7.95765H10.6921Z" fill="#01EAEC"/>
<path d="M12.3054 4.65833C12.1156 4.65894 11.9299 4.60336 11.7717 4.49858C11.6134 4.3938 11.4897 4.24452 11.4162 4.06956C11.3426 3.89459 11.3225 3.70177 11.3584 3.5154C11.3943 3.32903 11.4845 3.15744 11.6177 3.02227C11.751 2.88711 11.9212 2.7944 12.1071 2.75585C12.2929 2.7173 12.486 2.73462 12.662 2.80564C12.838 2.87665 12.9891 2.99818 13.0961 3.1549C13.2032 3.31163 13.2614 3.49653 13.2635 3.68632C13.2619 3.94122 13.1609 4.18544 12.982 4.36698C12.803 4.54853 12.5603 4.65306 12.3054 4.65833Z" fill="#01EAEC"/>
</g>
<defs>
<clipPath id="clip0">
<rect width="16" height="15.9368" fill="white"/>
</clipPath>
</defs>
</svg>
