<svg width="67" height="38" viewBox="0 0 67 38" fill="none" xmlns="http://www.w3.org/2000/svg">
<g clip-path="url(#clip0_339:66)">
<path d="M9.57098 0C9.59253 0.0695684 9.6074 0.141077 9.61535 0.213531C9.61535 10.0616 9.61535 19.9096 9.61535 29.7577V29.9424H0V0H9.57098Z" fill="white"/>
<path d="M67.0001 29.9403H57.3848V29.7161C57.3848 19.8936 57.3848 10.0712 57.3848 0.248764C57.3931 0.164871 57.4076 0.08172 57.4281 0L67.0001 0V29.9403Z" fill="white"/>
<path d="M52.6427 0V29.9403H52.4166C49.3728 29.9403 46.3286 29.9403 43.2841 29.9403C43.0844 29.9403 43.0273 29.889 43.0273 29.683C43.0323 19.8712 43.034 10.0591 43.0326 0.246628C43.0392 0.163501 43.0522 0.0810304 43.0717 0L52.6427 0Z" fill="white"/>
<path d="M23.9287 0C23.9476 0.0698984 23.9604 0.141356 23.9668 0.213531C23.9668 10.0509 23.9668 19.8883 23.9668 29.7257C23.9668 29.8687 23.9477 29.9456 23.7755 29.9456C20.6648 29.9413 17.5544 29.9413 14.4444 29.9456C14.4243 29.9456 14.4053 29.9456 14.3535 29.9381V29.7246C14.3535 19.8936 14.3535 10.0627 14.3535 0.231681C14.3617 0.15339 14.3762 0.0759053 14.3968 0L23.9287 0Z" fill="white"/>
<path d="M0 32.2431C0.0690276 32.2231 0.139795 32.2099 0.211326 32.2036C3.27486 32.2036 6.33909 32.2036 9.40403 32.2036C9.56886 32.2036 9.61535 32.2517 9.61535 32.4171C9.61535 34.2097 9.61535 36.0023 9.61535 37.7949C9.60859 37.8671 9.59551 37.9386 9.57626 38.0084H0V32.2431Z" fill="white"/>
<path d="M57.4277 37.9999C57.4088 37.93 57.396 37.8586 57.3896 37.7864C57.3896 35.9938 57.3896 34.2012 57.3896 32.4086C57.3896 32.2399 57.4404 32.1951 57.601 32.1951C60.6645 32.1993 63.7287 32.1993 66.7937 32.1951C66.8652 32.2014 66.936 32.2146 67.005 32.2346V37.9999H57.4277Z" fill="white"/>
<path d="M28.7139 37.9999V32.21H38.2848V37.9999H37.1289C37.1096 37.9243 37.0968 37.8471 37.0909 37.7692C37.0909 37.1938 37.0909 36.6194 37.0909 36.0343H29.91V36.2393C29.91 36.7496 29.91 37.2589 29.91 37.7692C29.903 37.847 29.8903 37.924 29.8719 37.9999H28.7139ZM29.9195 35.0841H37.0729V33.1741H29.9195V35.0841Z" fill="white"/>
<path d="M43.0712 38C43.0518 37.9302 43.0391 37.8587 43.0332 37.7864C43.0332 35.9949 43.0332 34.2023 43.0332 32.4097C43.0332 32.2442 43.0776 32.1898 43.2445 32.1962C43.4717 32.1962 43.5615 32.2037 43.7116 32.1962C44.0793 32.1835 44.4371 32.3182 44.7069 32.5709C45.2648 33.0386 45.8407 33.4827 46.407 33.9397C46.8297 34.2771 47.2523 34.608 47.6591 34.9593C47.8187 35.097 47.8588 35.097 48.0142 34.971C48.5351 34.5301 49.0708 34.1169 49.6076 33.6899C50.0936 33.3012 50.5881 32.9222 51.0636 32.5154C51.1764 32.4076 51.3091 32.3233 51.4541 32.2674C51.5992 32.2116 51.7537 32.1852 51.9089 32.1898C52.1287 32.1898 52.209 32.1898 52.4256 32.1898C52.6031 32.1759 52.6517 32.241 52.6507 32.4172C52.6443 33.8276 52.6507 35.2369 52.6507 36.6462V37.9957H51.4461V33.756L47.8451 36.6441L44.2726 33.7849L44.2251 33.8201V38H43.0712Z" fill="white"/>
<path d="M14.3574 38V32.1973H14.5814C17.6245 32.1973 20.668 32.1973 23.7118 32.1973C23.9094 32.1973 23.9907 32.2421 23.9707 32.4524C23.9601 32.6402 23.9601 32.8284 23.9707 33.0162C23.9707 33.1293 23.9252 33.1763 23.8153 33.1688C23.7688 33.1688 23.7224 33.1688 23.6759 33.1688H15.5535V33.6311C15.5535 34.0475 15.562 34.4639 15.5535 34.8803C15.5535 35.0607 15.6085 35.1066 15.7818 35.1066C18.4269 35.1016 21.0716 35.1016 23.716 35.1066H23.9717C23.9717 35.3831 23.9781 35.6405 23.9664 35.902C23.9664 35.9479 23.8893 36.0035 23.8354 36.0291C23.7835 36.0399 23.7299 36.0399 23.678 36.0291H15.5535V38.0042L14.3574 38Z" fill="white"/>
<path d="M38.2723 29.9306H28.7246V8.03516H38.2723V29.9306Z" fill="white"/>
<path d="M28.7236 4.62068V0.0500488H38.2703V4.62068H28.7236Z" fill="white"/>
</g>
<defs>
<clipPath id="clip0_339:66">
<rect width="67" height="38" fill="white"/>
</clipPath>
</defs>
</svg>
