<svg width="60" height="60" viewBox="0 0 60 60" fill="none" xmlns="http://www.w3.org/2000/svg">
<g clip-path="url(#clip0_339:46)">
<path d="M29.9994 54.5421C28.3384 54.5424 26.6815 54.3753 25.054 54.0433C21.9145 53.4005 18.9324 52.1454 16.278 50.3498C12.3327 47.6865 9.2443 43.9363 7.38685 39.5535C6.75909 38.0682 6.27997 36.5243 5.9565 34.9446C5.29184 31.6811 5.29184 28.3171 5.9565 25.0536C6.59963 21.9142 7.85466 18.9322 9.64997 16.2777C12.3132 12.3324 16.0635 9.24407 20.4463 7.38685C21.9316 6.75915 23.4755 6.28003 25.0552 5.9565C28.3187 5.29184 31.6827 5.29184 34.9462 5.9565C38.0855 6.59969 41.0676 7.85472 43.7221 9.64997C47.6677 12.313 50.7562 16.0633 52.6133 20.4463C53.241 21.9316 53.7201 23.4755 54.0436 25.0552C54.7083 28.3187 54.7083 31.6827 54.0436 34.9462C53.4003 38.0855 52.1453 41.0675 50.3502 43.7221C47.6866 47.6672 43.9365 50.7556 39.5538 52.6133C38.0685 53.2409 36.5246 53.7199 34.9449 54.0433C33.3174 54.3753 31.6605 54.5424 29.9994 54.5421ZM29.9994 6.75233C17.1809 6.75233 6.75201 17.1812 6.75201 30.0001C6.75201 42.8189 17.1809 53.2475 29.9994 53.2475C42.818 53.2475 53.2472 42.8186 53.2472 30.0001C53.2472 17.1815 42.8183 6.75233 29.9994 6.75233Z" fill="white"/>
<path d="M24.1963 23.5493L23.4816 25.5299H16.1622L15.4923 27.3609H21.4407C21.6796 27.361 21.9148 27.4199 22.1257 27.5323C22.3888 27.6613 22.5203 27.8374 22.5203 28.0607C22.5203 28.1302 22.0835 29.371 21.2099 31.7832C21.1207 32.0465 20.8824 32.2699 20.4952 32.4534C20.1427 32.617 19.8126 32.6988 19.5049 32.699H10.8091L10.1689 30.7188H17.4722L18.1421 28.8878H12.2004C11.9593 28.888 11.7219 28.829 11.509 28.7161C11.2459 28.5873 11.1144 28.4111 11.1144 28.1876C11.1144 28.1182 11.5512 26.8773 12.4248 24.4651C12.5239 24.202 12.7647 23.9787 13.1471 23.7952C13.4893 23.6313 13.8193 23.5493 14.1371 23.5493H24.1963Z" fill="white"/>
<path d="M37.0002 23.5493L36.2865 25.5299H32.6309L30.0177 32.6993H25.9006L28.5135 25.5299H24.8516L25.5663 23.5493H37.0002Z" fill="white"/>
<path d="M49.8061 23.5493L47.7226 25.5299H41.773L39.882 30.7191H43.0834L43.7532 28.8881H42.1527L42.7036 27.3618H48.4212L46.4858 32.7H36.4199C36.1855 32.7022 35.9546 32.6431 35.7501 32.5286C35.4872 32.3998 35.3557 32.2236 35.3555 32.0001C35.3554 31.9258 35.3706 31.8524 35.4 31.7842L38.0356 24.4657C38.1408 24.2027 38.3816 23.9794 38.7579 23.7959C39.1003 23.6319 39.4303 23.5499 39.7479 23.5499L49.8061 23.5493Z" fill="white"/>
<path d="M24.7889 38.1834C24.7889 38.2045 24.5995 38.7353 24.2207 39.776C24.1904 39.8575 24.1202 39.9238 24.0101 39.9749C23.9149 40.0241 23.8098 40.0512 23.7026 40.0541H21.3395C21.2661 40.0542 21.1938 40.0365 21.1289 40.0024C21.0522 39.9645 21.0137 39.9111 21.0137 39.8417C21.0137 39.8175 21.2021 39.2859 21.5791 38.2469C21.6108 38.1686 21.6832 38.1007 21.7962 38.0433C21.8897 37.9964 21.9925 37.9709 22.0971 37.9688H24.4609C24.5335 37.9688 24.605 37.9866 24.6693 38.0205C24.7492 38.0614 24.7891 38.1156 24.7889 38.1834ZM23.4091 38.5726H22.7146L22.3891 39.4525H23.0858L23.4091 38.5726Z" fill="white"/>
<path d="M28.4017 38.1835C28.4019 38.2053 28.3973 38.2268 28.3882 38.2466L27.73 40.0539H26.4789L27.0219 38.5724H26.3274L25.7844 40.0539H24.5381L25.2935 37.9685H28.0737C28.1463 37.9686 28.2177 37.9864 28.2818 38.0203C28.3618 38.0613 28.4017 38.1157 28.4017 38.1835Z" fill="white"/>
<path d="M30.2809 37.2742L29.2708 40.0541H28.0254L29.0299 37.2742H30.2809Z" fill="white"/>
<path d="M31.6989 37.9687L30.9387 40.0541H29.6924L30.4478 37.9687H31.6989ZM31.9476 37.2742L31.7825 37.7379H30.5315L30.6966 37.2742H31.9476Z" fill="white"/>
<path d="M35.348 38.1834C35.348 38.2052 35.3434 38.2267 35.3344 38.2466L34.6762 40.0541H33.4252L33.9682 38.5726H33.2737L32.7307 40.0541H31.4844L32.2398 37.9688H35.02C35.0925 37.9689 35.1639 37.9866 35.228 38.0205C35.308 38.0614 35.348 38.1156 35.348 38.1834Z" fill="white"/>
<path d="M38.9614 38.1834C38.9614 38.203 38.8667 38.4714 38.6773 38.9887C38.647 39.0702 38.5768 39.1366 38.4667 39.1879C38.3712 39.2363 38.2663 39.2633 38.1592 39.2671H36.6301L36.56 39.4525H38.5074L37.872 40.0541H35.5104C35.437 40.0542 35.3647 40.0365 35.2998 40.0024C35.2231 39.9645 35.1846 39.9111 35.1846 39.8417C35.1846 39.8175 35.373 39.2859 35.75 38.2469C35.7819 38.1686 35.8543 38.1007 35.9671 38.0433C36.0606 37.9964 36.1634 37.9709 36.268 37.9688H38.6318C38.7043 37.9688 38.7757 37.9866 38.8398 38.0205C38.9216 38.0603 38.9614 38.1155 38.9614 38.1834ZM37.5815 38.5726H36.887L36.799 38.8034H37.4935L37.5815 38.5726Z" fill="white"/>
<path d="M29.9979 59.9979C27.9676 59.9983 25.9423 59.794 23.9529 59.3883C20.1149 58.6026 16.4691 57.0687 13.2239 54.874C8.40132 51.6179 4.62627 47.0334 2.35593 41.6757C1.5887 39.8604 1.00299 37.9737 0.607375 36.043C-0.205063 32.0538 -0.205063 27.9417 0.607375 23.9524C1.39324 20.1144 2.92716 16.4687 5.12162 13.2233C8.37781 8.40026 12.9632 4.62529 18.3218 2.35601C20.1366 1.58873 22.0228 1.00302 23.9529 0.607449C27.9422 -0.205413 32.0543 -0.205413 36.0435 0.607449C39.8815 1.39348 43.5272 2.9274 46.7726 5.12169C51.5953 8.37758 55.3703 12.9623 57.6399 18.3203C58.4072 20.1356 58.9929 22.0224 59.3885 23.953C60.2009 27.9423 60.2009 32.0544 59.3885 36.0436C58.6025 39.8815 57.0686 43.5271 54.8742 46.7724C51.6184 51.5952 47.0338 55.3705 41.6759 57.6407C39.8606 58.4078 37.9739 58.9934 36.0432 59.3889C34.0537 59.7945 32.0284 59.9985 29.9979 59.9979ZM29.9979 1.93963C14.5267 1.93963 1.93987 14.5265 1.93987 29.998C1.93987 45.4696 14.5267 58.0561 29.9979 58.0561C45.4691 58.0561 58.056 45.4693 58.056 29.998C58.056 14.5268 45.4704 1.93963 29.9979 1.93963Z" fill="white"/>
</g>
<defs>
<clipPath id="clip0_339:46">
<rect width="60" height="60" fill="white"/>
</clipPath>
</defs>
</svg>
