<?xml version="1.0" encoding="utf-8"?>
<!-- Generator: Adobe Illustrator 23.1.0, SVG Export Plug-In . SVG Version: 6.00 Build 0)  -->
<svg version="1.1" id="Слой_1" xmlns="http://www.w3.org/2000/svg" xmlns:xlink="http://www.w3.org/1999/xlink" x="0px" y="0px"
	 viewBox="0 0 1000 1000" enable-background="new 0 0 1000 1000" xml:space="preserve">
<g display="none">
	<rect x="0.5" y="0.5" display="inline" width="999" height="999"/>
	<path display="inline" fill="#FFFFFF" d="M999,1v998H1V1H999 M1000,0H0v1000h1000V0L1000,0z"/>
</g>
<g display="none">
	<g id="stg" display="inline">
		<path fill="#FFFFFF" d="M378.71,335.15l-14.97,41.47H210.5l-14.03,38.35h124.56c4.99,0,9.77,1.2,14.34,3.59
			c5.51,2.7,8.26,6.39,8.26,11.07c0,1.46-9.15,27.44-27.44,77.95c-1.87,5.51-6.86,10.19-14.97,14.03
			c-7.38,3.43-14.29,5.14-20.73,5.14H98.41L85,485.28h152.94l14.03-38.35H127.56c-5.09,0-9.93-1.19-14.5-3.59
			c-5.51-2.7-8.26-6.39-8.26-11.07c0-1.45,9.14-27.44,27.44-77.95c2.08-5.51,7.12-10.18,15.12-14.03
			c7.17-3.43,14.08-5.14,20.73-5.14H378.71z"/>
		<path fill="#FFFFFF" d="M646.86,335.15l-14.97,41.47h-76.54l-54.72,150.13h-86.21l54.72-150.13h-76.7l14.97-41.47H646.86z"/>
		<path fill="#FFFFFF" d="M915,335.15l-43.65,41.47H746.79l-39.6,108.66h67.04l14.03-38.35h-33.52l11.54-31.96H886l-40.53,111.78
			H634.7c-5.09,0-9.77-1.19-14.03-3.59c-5.51-2.7-8.26-6.39-8.26-11.07c0-1.56,0.31-3.06,0.94-4.52l55.19-153.25
			c2.18-5.51,7.22-10.18,15.12-14.03c7.17-3.43,14.08-5.14,20.74-5.14H915z"/>
	</g>
	<g id="online" display="inline">
		<path fill="#FFFFFF" d="M391.15,625.68c0,0.44-3.98,11.56-11.94,33.35c-0.63,1.71-2.1,3.1-4.41,4.17
			c-2.31,1.11-4.45,1.66-6.44,1.66h-49.45c-1.55,0-3.02-0.36-4.41-1.09c-1.61-0.79-2.42-1.91-2.42-3.36
			c0-0.51,3.95-11.64,11.84-33.39c0.66-1.64,2.18-3.06,4.55-4.26c2.21-1.04,4.31-1.56,6.3-1.56h49.5c1.52,0,2.97,0.36,4.36,1.09
			C390.31,623.12,391.15,624.26,391.15,625.68z M362.25,633.82h-14.54l-6.82,18.43h14.59L362.25,633.82z"/>
		<path fill="#FFFFFF" d="M466.79,625.68c0,0.47-0.09,0.92-0.28,1.33l-13.78,37.85h-26.19l11.37-31.03h-14.54l-11.37,31.03h-26.1
			l15.82-43.67h58.22c1.51,0,2.97,0.36,4.36,1.09C465.96,623.12,466.79,624.26,466.79,625.68z"/>
		<path fill="#FFFFFF" d="M506.16,606.64l-21.13,58.21h-26.1l21.03-58.21H506.16z"/>
		<path fill="#FFFFFF" d="M535.86,621.18l-15.92,43.67h-26.1l15.82-43.67H535.86z M541.07,606.64l-3.46,9.71h-26.19l3.46-9.71
			H541.07z"/>
		<path fill="#FFFFFF" d="M612.26,625.68c0,0.47-0.09,0.92-0.28,1.33l-13.78,37.85H572l11.37-31.03h-14.54l-11.37,31.03h-26.1
			l15.82-43.67h58.22c1.52,0,2.97,0.36,4.36,1.09C611.43,623.12,612.26,624.26,612.26,625.68z"/>
		<path fill="#FFFFFF" d="M687.91,625.68c0,0.41-1.97,6.03-5.92,16.86c-0.63,1.71-2.1,3.09-4.41,4.17
			c-2.37,1.11-4.52,1.66-6.44,1.66h-32.02l-1.47,3.88h40.78l-13.31,12.6h-49.45c-1.55,0-3.02-0.36-4.4-1.09
			c-1.61-0.79-2.42-1.91-2.42-3.36c0-0.51,3.95-11.64,11.84-33.39c0.66-1.64,2.18-3.06,4.55-4.26c2.21-1.04,4.31-1.56,6.3-1.56h49.5
			c1.52,0,2.97,0.36,4.36,1.09C687.07,623.12,687.91,624.26,687.91,625.68z M659.01,633.82h-14.54l-1.85,4.83h14.54L659.01,633.82z"
			/>
	</g>
</g>
<g>
	<circle display="none" fill="none" stroke="#FFFFFF" stroke-width="20" stroke-miterlimit="10" cx="500" cy="500" r="385.23"/>
	<g id="stg_1_">
		<path fill="#FFFFFF" d="M406.62,406.93l-11.52,31.93H277.11l-10.8,29.53h95.9c3.84,0,7.52,0.92,11.04,2.76
			c4.24,2.08,6.36,4.92,6.36,8.52c0,1.12-7.04,21.12-21.12,60.01c-1.44,4.24-5.28,7.84-11.52,10.8c-5.68,2.64-11,3.96-15.96,3.96
			H190.81l-10.32-31.93h117.75l10.8-29.53h-95.78c-3.92,0-7.64-0.92-11.16-2.76c-4.24-2.08-6.36-4.92-6.36-8.52
			c0-1.12,7.04-21.12,21.12-60.01c1.6-4.24,5.48-7.84,11.64-10.8c5.52-2.64,10.84-3.96,15.96-3.96H406.62z"/>
		<path fill="#FFFFFF" d="M613.06,406.93l-11.52,31.93h-58.93l-42.13,115.59h-66.37l42.13-115.59h-59.05l11.52-31.93H613.06z"/>
		<path fill="#FFFFFF" d="M819.51,406.93l-33.61,31.93H690l-30.49,83.66h51.61l10.8-29.53h-25.81l8.88-24.61h92.18l-31.21,86.06
			H603.7c-3.92,0-7.52-0.92-10.8-2.76c-4.24-2.08-6.36-4.92-6.36-8.52c0-1.2,0.24-2.36,0.72-3.48l42.49-117.99
			c1.68-4.24,5.56-7.84,11.64-10.8c5.52-2.64,10.84-3.96,15.96-3.96H819.51z"/>
	</g>
	<g id="online_1_">
		<path fill="#FFFFFF" d="M416.2,630.6c0,0.34-3.06,8.9-9.19,25.67c-0.49,1.31-1.62,2.38-3.39,3.21c-1.77,0.85-3.43,1.28-4.96,1.28
			h-38.07c-1.19,0-2.32-0.28-3.39-0.84c-1.24-0.61-1.86-1.47-1.86-2.59c0-0.39,3.04-8.96,9.12-25.71c0.51-1.26,1.68-2.36,3.5-3.28
			c1.7-0.8,3.32-1.2,4.85-1.2h38.11c1.17,0,2.28,0.28,3.36,0.84C415.55,628.63,416.2,629.51,416.2,630.6z M393.95,636.88h-11.2
			l-5.25,14.19h11.23L393.95,636.88z"/>
		<path fill="#FFFFFF" d="M474.44,630.6c0,0.36-0.07,0.71-0.22,1.02l-10.61,29.14h-20.17l8.75-23.89h-11.2l-8.75,23.89h-20.09
			l12.18-33.62h44.82c1.17,0,2.28,0.28,3.35,0.84C473.79,628.63,474.44,629.51,474.44,630.6z"/>
		<path fill="#FFFFFF" d="M504.74,615.94l-16.26,44.82h-20.09l16.19-44.82H504.74z"/>
		<path fill="#FFFFFF" d="M527.61,627.14l-12.25,33.62h-20.09l12.18-33.62H527.61z M531.62,615.94l-2.66,7.48h-20.17l2.66-7.48
			H531.62z"/>
		<path fill="#FFFFFF" d="M586.43,630.6c0,0.36-0.07,0.71-0.22,1.02l-10.61,29.14h-20.17l8.75-23.89h-11.2l-8.75,23.89h-20.09
			l12.18-33.62h44.82c1.17,0,2.28,0.28,3.35,0.84C585.79,628.63,586.43,629.51,586.43,630.6z"/>
		<path fill="#FFFFFF" d="M644.67,630.6c0,0.32-1.52,4.64-4.56,12.98c-0.49,1.31-1.62,2.38-3.39,3.21
			c-1.82,0.85-3.48,1.28-4.96,1.28h-24.65l-1.13,2.99h31.4l-10.25,9.7h-38.07c-1.19,0-2.32-0.28-3.39-0.84
			c-1.24-0.61-1.86-1.47-1.86-2.59c0-0.39,3.04-8.96,9.12-25.71c0.51-1.26,1.68-2.36,3.5-3.28c1.7-0.8,3.32-1.2,4.85-1.2h38.11
			c1.17,0,2.28,0.28,3.35,0.84C644.03,628.63,644.67,629.51,644.67,630.6z M622.42,636.88h-11.2l-1.42,3.72H621L622.42,636.88z"/>
	</g>
	<circle display="none" fill="none" stroke="#FFFFFF" stroke-width="30" stroke-miterlimit="10" cx="500" cy="500" r="468"/>
</g>
<g>
</g>
<g>
</g>
<g>
</g>
<g>
</g>
<g>
</g>
<g>
</g>
<g>
</g>
<g>
</g>
<g>
</g>
<g>
</g>
<g>
</g>
<g>
</g>
<g>
</g>
<g>
</g>
<g>
</g>
</svg>
