<svg width="45" height="45" viewBox="0 0 45 45" fill="none" xmlns="http://www.w3.org/2000/svg">
<path d="M21.7803 35.1246L21.8061 9" stroke="#FED825" stroke-width="2" stroke-miterlimit="10"/>
<path d="M15.3953 29.7536V26.5653C15.3953 24.6661 13.857 23.1365 11.9664 23.1365C10.0673 23.1365 8.5376 24.6747 8.5376 26.5653V29.7536" stroke="#FED825" stroke-width="2" stroke-miterlimit="10"/>
<path d="M12.0009 23.0763C13.6098 23.0763 14.9141 21.7721 14.9141 20.1631C14.9141 18.5542 13.6098 17.2499 12.0009 17.2499C10.3919 17.2499 9.08765 18.5542 9.08765 20.1631C9.08765 21.7721 10.3919 23.0763 12.0009 23.0763Z" stroke="#FED825" stroke-width="2" stroke-miterlimit="10"/>
<path d="M28.1309 29.7536V26.5653C28.1309 24.6661 29.6691 23.1365 31.5597 23.1365C33.4589 23.1365 34.9886 24.6747 34.9886 26.5653V29.7536" stroke="#FED825" stroke-width="2" stroke-miterlimit="10"/>
<path d="M31.5941 23.0763C33.2031 23.0763 34.5074 21.7721 34.5074 20.1631C34.5074 18.5542 33.2031 17.2499 31.5941 17.2499C29.9852 17.2499 28.6809 18.5542 28.6809 20.1631C28.6809 21.7721 29.9852 23.0763 31.5941 23.0763Z" stroke="#FED825" stroke-width="2" stroke-miterlimit="10"/>
</svg>
