<svg width="79" height="63" viewBox="0 0 79 63" fill="none" xmlns="http://www.w3.org/2000/svg">
<path d="M74.3372 62.2291H6.11127C5.37887 62.2291 4.56441 62.3031 3.84801 62.1371C3.04487 61.9439 2.33004 61.4865 1.81832 60.8385C1.30661 60.1905 1.02772 59.3895 1.02645 58.5641C1.02645 58.3041 1.02645 58.0462 1.02645 57.7883V5.38385C1.02645 4.50807 1.02645 3.6343 1.02645 2.75853C1.02272 2.53466 1.06368 2.3123 1.14691 2.10443C1.23015 1.89655 1.35399 1.70733 1.51123 1.5478C1.66846 1.38828 1.85592 1.26166 2.06267 1.17532C2.26942 1.08899 2.49131 1.04468 2.71539 1.04497C2.9275 1.04497 3.14162 1.04497 3.35374 1.04497H74.3172C75.1581 1.04757 75.9728 1.33787 76.6257 1.86756C77.2785 2.39725 77.7301 3.13437 77.9052 3.95622C78.0733 4.77601 77.9752 5.70576 77.9752 6.53355V57.9942C77.9752 58.1942 77.9752 58.3941 77.9752 58.5941C77.9649 59.5553 77.5783 60.4743 76.8984 61.1544C76.2185 61.8345 75.2992 62.2217 74.3372 62.2331C74.2576 62.2331 74.1813 62.2647 74.125 62.321C74.0687 62.3772 74.037 62.4535 74.037 62.533C74.037 62.6126 74.0687 62.6889 74.125 62.7451C74.1813 62.8014 74.2576 62.833 74.3372 62.833C75.3927 62.8214 76.4068 62.4214 77.1855 61.7094C77.9642 60.9974 78.4527 60.0234 78.5576 58.974C78.5836 58.688 78.5756 58.3981 78.5756 58.1102V6.48156C78.5756 5.5678 78.6696 4.54806 78.4495 3.6523C78.211 2.74097 77.6784 1.93363 76.9343 1.35529C76.1901 0.776942 75.2759 0.459857 74.3332 0.453125H3.29371C3.0936 0.453125 2.89348 0.453125 2.70538 0.453125C2.10253 0.458366 1.52594 0.700388 1.10021 1.1269C0.674471 1.55341 0.433771 2.13016 0.430115 2.73253C0.416107 3.55432 0.430115 4.37811 0.430115 5.1979V57.8483C0.430115 58.0902 0.430115 58.3321 0.430115 58.5741C0.433251 59.415 0.683827 60.2364 1.15065 60.936C1.61748 61.6357 2.27994 62.1827 3.05557 62.509C3.98609 62.8929 4.96864 62.829 5.94918 62.829H74.3372C74.4168 62.829 74.4932 62.7974 74.5495 62.7411C74.6058 62.6849 74.6374 62.6086 74.6374 62.529C74.6374 62.4495 74.6058 62.3732 74.5495 62.317C74.4932 62.2607 74.4168 62.2291 74.3372 62.2291Z" fill="#01EAEC"/>
<path d="M53.634 31.637C53.6326 34.6471 52.7187 37.5861 51.0125 40.0669C49.3787 42.4289 47.0674 44.2412 44.3829 45.2655C41.5764 46.3197 38.5042 46.4396 35.624 45.6074C32.8527 44.7813 30.3991 43.1311 28.5901 40.8767C26.7398 38.5556 25.6343 35.7303 25.4183 32.7708C25.1919 29.7527 25.8899 26.7373 27.4194 24.125C28.8839 21.6348 31.0642 19.6423 33.6769 18.4065C36.3864 17.1472 39.4306 16.7966 42.3557 17.4067C45.1902 18.0155 47.7684 19.4815 49.7398 21.6056C51.7418 23.772 53.0481 26.4882 53.4899 29.4036C53.5996 30.1437 53.6545 30.8909 53.654 31.639C53.654 31.7186 53.6856 31.7949 53.7419 31.8511C53.7982 31.9074 53.8746 31.939 53.9542 31.939C54.0338 31.939 54.1101 31.9074 54.1664 31.8511C54.2227 31.7949 54.2543 31.7186 54.2543 31.639C54.2541 28.5105 53.3045 25.4555 51.5308 22.8773C49.8118 20.3983 47.382 18.4974 44.561 17.4247C41.6498 16.3419 38.4672 16.2241 35.4839 17.0888C32.6007 17.9433 30.0474 19.6574 28.1658 22.0015C26.2111 24.4462 25.0452 27.4262 24.8222 30.5473C24.5993 33.6685 25.3298 36.7837 26.9171 39.481C28.4416 42.0648 30.7082 44.1311 33.4228 45.4115C36.2033 46.7034 39.323 47.0781 42.3308 46.4814C45.3385 45.8847 48.0784 44.3476 50.1541 42.0923C52.2478 39.8376 53.6119 37.0042 54.0682 33.9624C54.1829 33.1926 54.2417 32.4154 54.2443 31.637C54.2443 31.5562 54.2122 31.4786 54.155 31.4214C54.0977 31.3642 54.0201 31.3321 53.9392 31.3321C53.8582 31.3321 53.7806 31.3642 53.7234 31.4214C53.6662 31.4786 53.634 31.5562 53.634 31.637Z" fill="#01EAEC"/>
<path d="M46.2658 31.1192L42.6277 28.9497L36.8125 25.5026L35.4718 24.7028C35.3805 24.6492 35.2767 24.6207 35.1709 24.6201C35.0651 24.6195 34.961 24.6469 34.8691 24.6995C34.7773 24.7521 34.701 24.828 34.648 24.9195C34.595 25.011 34.5671 25.1149 34.5673 25.2207V38.0314C34.5671 38.1371 34.595 38.241 34.648 38.3325C34.701 38.4241 34.7773 38.5 34.8691 38.5525C34.961 38.6051 35.0651 38.6325 35.1709 38.6319C35.2767 38.6313 35.3805 38.6028 35.4718 38.5492L39.1178 36.3878L44.925 32.9487L46.2658 32.1489C46.9281 31.749 46.3258 30.7173 45.6654 31.1132L42.0174 33.2746L36.2022 36.7237L34.8614 37.5235L35.7639 38.0414V25.2307L34.8554 25.7505L38.5015 27.914L44.3187 31.3611L45.6594 32.1609C46.3258 32.5488 46.9301 31.5131 46.2658 31.1192Z" fill="#01EAEC"/>
<path d="M7.5061 56.0647H68.8982C69.7267 56.0647 70.5592 56.0807 71.3876 56.0647H71.4957C71.5753 56.0647 71.6516 56.0331 71.7079 55.9769C71.7642 55.9206 71.7959 55.8444 71.7959 55.7648C71.7959 55.6853 71.7642 55.609 71.7079 55.5527C71.6516 55.4965 71.5753 55.4649 71.4957 55.4649H10.1035C9.27508 55.4649 8.44262 55.4489 7.61416 55.4649H7.5061C7.42649 55.4649 7.35014 55.4965 7.29385 55.5527C7.23756 55.609 7.20593 55.6853 7.20593 55.7648C7.20593 55.8444 7.23756 55.9206 7.29385 55.9769C7.35014 56.0331 7.42649 56.0647 7.5061 56.0647Z" fill="#01EAEC"/>
<path d="M15.4128 53.6493V57.8803C15.4128 57.9598 15.4444 58.0361 15.5007 58.0923C15.557 58.1486 15.6333 58.1802 15.7129 58.1802C15.7926 58.1802 15.8689 58.1486 15.9252 58.0923C15.9815 58.0361 16.0131 57.9598 16.0131 57.8803V53.6493C16.0131 53.5698 15.9815 53.4935 15.9252 53.4373C15.8689 53.381 15.7926 53.3494 15.7129 53.3494C15.6333 53.3494 15.557 53.381 15.5007 53.4373C15.4444 53.4935 15.4128 53.5698 15.4128 53.6493Z" fill="#01EAEC"/>
</svg>
