<svg width="19" height="16" viewBox="0 0 19 16" fill="none" xmlns="http://www.w3.org/2000/svg">
<g clip-path="url(#clip0_339:99)">
<path d="M18.4611 4.29538C17.7541 7.75592 17.0555 11.22 16.3349 14.6791C16.0592 16.005 14.9038 16.3985 13.8269 15.5532C12.837 14.7803 11.8612 13.987 10.8508 13.1804L9.75696 14.1739C9.42746 14.4746 9.10361 14.7817 8.76704 15.0768C7.8146 15.9137 6.62388 15.6228 6.19255 14.4318C5.62453 12.8578 5.07089 11.279 4.53162 9.69523C4.43051 9.39941 4.27778 9.24061 3.9709 9.15981C3.01564 8.90896 2.06744 8.63071 1.11641 8.36019C0.745903 8.2562 0.419231 8.09319 0.185187 7.80932C0.0580495 7.65488 -0.00794531 7.45961 -0.000393272 7.26022C0.00715877 7.06083 0.0877376 6.87104 0.226197 6.72654C0.465191 6.47218 0.774186 6.30987 1.11853 6.18339C2.16643 5.79904 3.20726 5.39572 4.25091 5.00013C8.4934 3.39107 12.734 1.78271 16.9727 0.175048C17.8884 -0.16925 18.4343 -0.0202886 18.8691 0.701331C18.976 0.878362 19.0189 1.08632 18.9907 1.29085C18.8946 1.98437 18.6082 3.57797 18.4611 4.29538ZM9.16371 10.3873C9.24786 10.4625 9.29665 10.5117 9.35038 10.5546C11.0384 11.906 12.7267 13.2565 14.4152 14.606C14.5051 14.6819 14.5996 14.7523 14.698 14.8168C14.9349 14.9574 15.1018 14.8871 15.193 14.6369C15.2271 14.5372 15.2533 14.4351 15.2715 14.3313C16.0464 10.537 16.8209 6.7427 17.595 2.9484C17.6932 2.46709 17.8014 1.98718 17.8827 1.50305C17.9443 1.13557 17.8318 1.05547 17.4726 1.17281C17.4281 1.18686 17.385 1.20724 17.3411 1.2234L3.61878 6.42299C2.89826 6.69632 2.17845 6.97528 1.38016 7.28093C2.45563 7.58728 3.44696 7.8831 4.44677 8.1494C4.64504 8.19589 4.8533 8.1746 5.03789 8.08897C8.08353 6.5572 11.1252 5.01723 14.1628 3.46906C14.5298 3.28356 14.8076 3.32151 14.9879 3.56181C15.1683 3.80212 15.1294 4.08388 14.8529 4.37829C14.2566 5.01067 13.6591 5.64142 13.0604 6.27052L9.16371 10.3873ZM6.97883 13.3033H7.04954C7.26944 12.4173 7.47379 11.5263 7.71773 10.6473C7.79857 10.3584 7.94354 10.0912 8.14198 9.86527C8.93816 8.98766 9.76827 8.13816 10.5807 7.27671C10.8452 6.99565 11.2489 6.5038 11.4829 6.2136C11.4923 6.20211 11.4974 6.18777 11.4974 6.17298C11.4974 6.15819 11.4924 6.14384 11.483 6.13233C11.4737 6.12082 11.4606 6.11284 11.4461 6.10973C11.4315 6.10662 11.4163 6.10856 11.403 6.11523C9.51443 7.07224 7.565 8.06227 5.67992 9.01085C5.47487 9.11413 5.5385 9.23429 5.588 9.38325C5.8772 10.199 6.16144 11.0169 6.44993 11.8334C6.62458 12.3217 6.80277 12.8122 6.97883 13.3033ZM9.96908 12.4742C9.51867 12.1144 9.10361 11.7842 8.66169 11.4308C8.42269 12.3983 8.19925 13.2984 7.97652 14.1992L8.04723 14.2329L9.96908 12.4742Z" fill="#01EAEC"/>
</g>
<defs>
<clipPath id="clip0_339:99">
<rect width="19" height="16" fill="white"/>
</clipPath>
</defs>
</svg>
