<svg width="23" height="14" viewBox="0 0 23 14" fill="none" xmlns="http://www.w3.org/2000/svg">
<path d="M0.0413734 1.11436C0.273653 0.274531 0.89137 0.00872595 1.69564 0.0136744C2.37288 0.0172091 3.05012 0.0136744 3.72808 0.0136744C4.79511 0.0136744 5.23136 0.342396 5.64584 1.30452C6.18105 2.55155 6.74626 3.78561 7.34148 5.00671C7.58972 5.51499 7.95774 5.96177 8.27495 6.43399C8.37459 6.55999 8.48096 6.6808 8.59361 6.79594C8.59361 5.59416 8.6328 4.50549 8.57255 3.41965C8.55078 3.03508 8.29455 2.65971 8.1305 2.28857C8.07388 2.16132 7.96282 2.05811 7.89096 1.9351C7.37051 1.04791 7.85322 0.0787118 8.8992 0.0362961C10.2174 -0.0188442 11.5414 0.000949739 12.8552 0.0334684C13.5085 0.0504347 13.9055 0.434297 13.9861 1.07265C14.0398 1.57565 14.064 2.08121 14.0587 2.58689C14.0689 3.63385 14.0587 4.68081 14.0587 5.81755C14.2351 5.64648 14.3737 5.53478 14.4884 5.39764C15.3805 4.34714 16.0454 3.1595 16.6595 1.94288C16.8083 1.64738 16.9288 1.33916 17.0703 1.04013C17.381 0.389053 17.9174 0.0433654 18.6426 0.0228645C19.489 -0.00117104 20.3368 -0.00894725 21.1831 0.0228645C22.2582 0.066694 22.8345 0.800485 22.4534 1.77958C22.0789 2.741 21.5715 3.66142 21.0438 4.55498C20.5161 5.44854 19.8969 6.29897 19.2973 7.15435C19.1521 7.36643 19.1696 7.47813 19.338 7.6591C20.2243 8.6085 21.1316 9.54165 21.9511 10.5412C22.3583 11.0361 22.6218 11.6441 22.9398 12.2089L22.9978 12.9208C22.7111 13.733 22.0774 13.9974 21.2615 13.9868C20.6685 13.9797 20.074 13.955 19.4846 13.9925C18.5765 14.0504 17.8775 13.7182 17.2765 13.0735C16.6043 12.3503 15.9039 11.649 15.1853 10.9696C14.8753 10.6763 14.4884 10.4607 14.1364 10.2104C14.061 10.8897 14.0341 11.5733 14.0558 12.2563C14.0776 13.188 13.7277 13.7154 12.7862 13.849C12.0482 13.9599 11.2979 13.9699 10.5571 13.8786C8.50868 13.6022 6.87111 12.5355 5.43461 11.1464C3.55678 9.3324 2.1856 7.17697 1.15051 4.8222C0.719338 3.84098 0.421005 2.80392 0.0638754 1.7916C-0.0127939 1.57309 -0.0206301 1.33724 0.0413734 1.11436ZM1.52433 1.41481C1.51897 1.47148 1.51897 1.52851 1.52433 1.58518C1.57805 1.81422 1.62523 2.04539 1.69491 2.27019C2.30392 4.22272 3.24102 6.02327 4.40169 7.71353C5.36855 9.12315 6.49003 10.3999 7.93742 11.3655C9.17721 12.194 10.536 12.6564 12.0604 12.5737C12.6193 12.544 12.6157 12.5433 12.62 12.0117C12.6258 11.3408 12.5881 10.665 12.657 10.0004C12.7587 9.027 13.4083 8.62547 14.3861 8.86441C14.5251 8.89904 14.6605 8.94638 14.7904 9.0058C15.6113 9.37976 16.2581 9.9757 16.8838 10.5907C17.4021 11.1011 17.8761 11.6511 18.3943 12.1636C18.5729 12.339 18.8204 12.5461 19.0476 12.5588C19.865 12.6069 20.6866 12.5779 21.5642 12.5779C21.4916 12.4118 21.4553 12.2725 21.3755 12.1651C20.9654 11.6129 20.5727 11.0446 20.1183 10.5285C19.4817 9.80604 18.7878 9.13163 18.1323 8.4247C17.9063 8.18015 17.7678 7.87084 17.7376 7.54315C17.7073 7.21546 17.787 6.88706 17.9646 6.60719C18.1272 6.35058 18.3196 6.11234 18.4793 5.85431C19.2995 4.52387 20.1154 3.19108 20.9269 1.85593C20.9995 1.73292 21.03 1.58305 21.0924 1.41127C20.262 1.41127 19.4882 1.39713 18.7166 1.42541C18.5845 1.43036 18.4118 1.59224 18.3399 1.72444C17.8427 2.6385 17.4064 3.58649 16.8744 4.48146C16.3118 5.42662 15.7093 6.36118 14.7911 7.037C14.3382 7.36997 13.8417 7.66758 13.2573 7.39895C12.673 7.13032 12.6266 6.5775 12.6229 6.03529C12.6142 4.66879 12.6164 3.30301 12.6142 1.9351C12.6142 1.77322 12.6142 1.61204 12.6142 1.41198H9.26794C9.82323 2.10689 10.0279 2.84209 10.0272 3.6388C10.0272 4.72252 10.0323 5.80553 10.0272 6.89067C10.0315 7.15076 10.0037 7.41041 9.94445 7.66405C9.74629 8.42753 8.99574 8.73292 8.30543 8.3222C8.01861 8.14804 7.75693 7.93741 7.5273 7.69586C6.72884 6.8638 6.13362 5.88683 5.64003 4.86391C5.14644 3.84098 4.73196 2.78766 4.26886 1.75342C4.21006 1.62264 4.06489 1.43601 3.95746 1.43248C3.15029 1.40491 2.34094 1.41481 1.52433 1.41481Z" fill="#01EAEC"/>
</svg>
