<svg width="21" height="16" viewBox="0 0 21 16" fill="none" xmlns="http://www.w3.org/2000/svg">
<g clip-path="url(#clip0)">
<path d="M21 5.71606V10.1812C20.9798 10.3396 20.9547 10.4979 20.9414 10.6577C20.8884 11.2709 20.8772 11.8905 20.7802 12.4961C20.6512 13.3047 20.4098 14.0791 19.8147 14.6937C19.1205 15.4103 18.2407 15.6321 17.2863 15.6865C13.9067 15.8777 10.5251 15.9614 7.1414 15.8226C5.74605 15.7654 4.3507 15.7061 2.9693 15.5526C1.78326 15.4207 0.915349 14.7503 0.51 13.6047C0.322326 13.0744 0.23093 12.5044 0.147907 11.9442C0.0634884 11.363 0.0467442 10.77 0 10.1861V5.72095C0.0202326 5.55002 0.0460465 5.37979 0.0606977 5.20816C0.113023 4.60746 0.124186 3.99979 0.21907 3.40607C0.539302 1.39537 1.67791 0.327228 3.57698 0.209321C8.1805 -0.0749819 12.7972 -0.0749819 17.4007 0.209321C18.8135 0.297228 19.9528 0.853972 20.4754 2.257C20.6791 2.80397 20.7677 3.40048 20.8542 3.98304C20.9386 4.55862 20.954 5.13979 21 5.71606ZM10.5188 1.24607C10.0193 1.24607 9.51907 1.23211 9.01954 1.24607C7.20558 1.30746 5.39163 1.36467 3.58326 1.45537C2.45372 1.51048 1.83907 2.02955 1.54535 3.11723C1.45865 3.39472 1.40411 3.68125 1.38279 3.97118C1.32558 5.71537 1.25163 7.45955 1.25581 9.19886C1.26394 10.3028 1.33639 11.4054 1.47279 12.5009C1.58581 13.4484 2.06581 14.1607 3.09419 14.3414C3.3567 14.3916 3.62211 14.4251 3.88884 14.4419C5.16558 14.504 6.44302 14.5654 7.72047 14.6079C10.9772 14.7175 14.2305 14.6393 17.4809 14.4321C18.5763 14.3623 19.1512 13.8809 19.4456 12.8275C19.5374 12.5397 19.5948 12.242 19.6165 11.9407C19.6751 10.1965 19.7484 8.45234 19.7442 6.71234C19.732 5.60879 19.66 4.50672 19.5286 3.41095C19.4512 2.72095 19.1902 2.05327 18.4884 1.7442C18.1184 1.57939 17.7219 1.48205 17.3177 1.45676C15.0516 1.34583 10.5195 1.22444 10.5188 1.24607Z" fill="#01EAEC"/>
<path d="M8.77544 4.37376C8.78565 4.37362 8.79581 4.37527 8.80544 4.37864C8.94615 4.42044 9.08314 4.47388 9.21498 4.53841C10.6847 5.33608 12.1524 6.13701 13.618 6.9412C13.9431 7.1198 14.1713 7.36329 14.1678 7.76166C14.1643 8.16004 13.9299 8.39794 13.604 8.57306C12.1389 9.35864 10.6815 10.1498 9.21498 10.9291C8.47196 11.324 7.83149 10.9507 7.82731 10.1191C7.81893 8.52701 7.82172 6.93422 7.82731 5.34213C7.828 4.75608 8.17196 4.37585 8.77544 4.37376ZM9.08033 9.60632L12.5282 7.7512L9.08033 5.8605V9.60632Z" fill="#01EAEC"/>
</g>
<defs>
<clipPath id="clip0">
<rect width="21" height="15.8923" fill="white"/>
</clipPath>
</defs>
</svg>
